<svg xmlns="http://www.w3.org/2000/svg" xmlns:xlink="http://www.w3.org/1999/xlink" version="1.1" x="0px" y="0px" viewBox="0 0 96 120" style="enable-background:new 0 0 96 96;" xml:space="preserve"><path d="M92.8,87.3H66.1C80.5,79.6,89.7,64.4,89.7,48c0-25.7-21.9-46.4-48-44.4c-21.8,1.6-39.4,19.2-41,41c-2,26.1,18.7,48,44.4,48  h47.7c1.4,0,2.6-1.2,2.6-2.6v0C95.4,88.5,94.3,87.3,92.8,87.3z M52.6,25.5c2-2,4.7-3.2,7.6-3.2s5.6,1.1,7.6,3.2c2,2,3.1,4.7,3.1,7.5  s-1.1,5.6-3.1,7.5c-1.9,2-4.6,3.1-7.5,3.1c-2.7,0-5.4-1.1-7.6-3.1c-2-2-3.1-4.7-3.1-7.6S50.6,27.4,52.6,25.5z M22.4,25.5  c4.2-4.2,11-4.2,15.2,0c2,2,3.1,4.7,3.1,7.5c0,2.8-1.1,5.6-3.1,7.5c-2,2-4.7,3.1-7.5,3.1c-2.8,0-5.4-1-7.6-3  C18.2,36.5,18.2,29.6,22.4,25.5z M37.6,70.8c-2,2-4.7,3.1-7.5,3.1c-2.9,0-5.6-1.1-7.5-3.2c-2-2-3.1-4.7-3.1-7.6s1.1-5.6,3.2-7.6  c2-2,4.7-3.1,7.5-3.1c2.9,0,5.6,1.1,7.5,3.2c2,2,3.1,4.7,3.1,7.6S39.6,68.7,37.6,70.8z M45.1,52.7c-2.6,0-4.7-2.1-4.7-4.7  c0-2.6,2.1-4.7,4.7-4.7s4.7,2.1,4.7,4.7C49.9,50.6,47.8,52.7,45.1,52.7z M52.7,70.8c-2-2-3.2-4.7-3.2-7.6c0-2.9,1.1-5.6,3.2-7.6  c2-2,4.7-3.2,7.5-3.2c2.9,0,5.6,1.1,7.5,3.2c2,2,3.2,4.7,3.2,7.6s-1.1,5.6-3.2,7.6c-1.9,2-4.6,3.1-7.5,3.1  C57.4,73.9,54.7,72.7,52.7,70.8z"/><text x="0" y="111" fill="#000000" font-size="5px" font-weight="bold" font-family="'Helvetica Neue', Helvetica, Arial-Unicode, Arial, Sans-serif">Created by Satisfactory</text><text x="0" y="116" fill="#000000" font-size="5px" font-weight="bold" font-family="'Helvetica Neue', Helvetica, Arial-Unicode, Arial, Sans-serif">from the Noun Project</text></svg>